<?xml version="1.0" encoding="UTF-8" standalone="no"?>
<svg
   width="1766.67"
   height="1766.67"
   viewBox="0 0 1766.5993 1766.67"
   version="1.1"
   xml:space="preserve"
   style="clip-rule:evenodd;fill-rule:evenodd;stroke-linejoin:round;stroke-miterlimit:2"
   id="svg18"
   sodipodi:docname="logo.svg"
   inkscape:version="1.1.1 (3bf5ae0d25, 2021-09-20)"
   inkscape:export-filename="C:\Users\Patrik\Source\github\mew-lang\mew\res\logo\mew.png"
   inkscape:export-xdpi="96"
   inkscape:export-ydpi="96"
   xmlns:inkscape="http://www.inkscape.org/namespaces/inkscape"
   xmlns:sodipodi="http://sodipodi.sourceforge.net/DTD/sodipodi-0.dtd"
   xmlns="http://www.w3.org/2000/svg"
   xmlns:svg="http://www.w3.org/2000/svg"><defs
     id="defs22" /><sodipodi:namedview
     id="namedview20"
     pagecolor="#ffffff"
     bordercolor="#666666"
     borderopacity="1.0"
     inkscape:pageshadow="2"
     inkscape:pageopacity="0.0"
     inkscape:pagecheckerboard="0"
     showgrid="false"
     fit-margin-top="100"
     fit-margin-left="100"
     fit-margin-right="100"
     fit-margin-bottom="100"
     inkscape:zoom="0.3492"
     inkscape:cx="819.01489"
     inkscape:cy="910.65292"
     inkscape:window-width="3840"
     inkscape:window-height="2054"
     inkscape:window-x="1909"
     inkscape:window-y="1684"
     inkscape:window-maximized="1"
     inkscape:current-layer="g15" /><g
     id="g15"
     transform="translate(-363.35308,-362.98301)"
     style="clip-rule:evenodd;fill-rule:evenodd;stroke-linejoin:round;stroke-miterlimit:2"><path
       d="m 693.261,1880.06 c 0,0 54.006,0.396 117.645,-25.223 126.358,-50.868 291.581,-175.62 245.509,-417.003 L 710.086,995.991 642.345,1607.669 Z"
       style="fill:#f68104"
       id="path3" /><path
       d="M 1834.43,2083.83 1557.095,993.82 1352.197,1509.098 c -89.264,-57.675 -187.831,-48.844 -291.364,-4.512 l -281.961,-297.905 -85.609,673.369 -149.764,-0.082 0.694,-1263.1 593.384,626.936 658.219,-826.64 162.613,1666.67 H 1834.43 Z"
       id="path5" /><path
       id="circle7"
       d="m 1191.227,1815.73 a 63.457001,63.457001 0 0 1 -63.457,63.457 63.457001,63.457001 0 0 1 -63.457,-63.457 63.457001,63.457001 0 0 1 63.457,-63.457 63.457001,63.457001 0 0 1 63.457,63.457 z" /><path
       id="circle9"
       d="m 1537.827,1815.73 a 63.457001,63.457001 0 0 1 -63.457,63.457 63.457001,63.457001 0 0 1 -63.457,-63.457 63.457001,63.457001 0 0 1 63.457,-63.457 63.457001,63.457001 0 0 1 63.457,63.457 z" /><path
       d="m 1379.7,1922.25 -51.327,51.327 -51.327,-51.327 c 28.347,-28.347 74.307,-28.347 102.654,0 z"
       style="fill:#030303"
       id="path11" /></g></svg>
